<?xml version="1.0" standalone="no"?>
<!DOCTYPE svg PUBLIC "-//W3C//DTD SVG 20010904//EN"
 "http://www.w3.org/TR/2001/REC-SVG-20010904/DTD/svg10.dtd">
<svg version="1.0" xmlns="http://www.w3.org/2000/svg"
 width="392.000000pt" height="392.000000pt" viewBox="0 0 392.000000 392.000000"
 preserveAspectRatio="xMidYMid meet">
<metadata>
Created by potrace 1.14, written by Peter Selinger 2001-2017
</metadata>
<g transform="translate(0.000000,392.000000) scale(0.100000,-0.100000)"
fill="#000000" stroke="none">
<path d="M1829 3870 c-95 -24 -185 -76 -260 -150 -110 -108 -159 -239 -159
-422 l0 -98 33 -1 c17 0 265 0 551 -1 414 0 520 2 526 13 14 21 9 195 -7 255
-51 198 -220 359 -428 409 -60 15 -190 13 -256 -5z"/>
<path d="M1438 3162 c-13 -3 -14 -8 -5 -32 l11 -30 510 -2 c335 -2 517 1 530
7 12 6 21 20 21 34 l0 24 -526 1 c-289 0 -533 0 -541 -2z"/>
<path d="M1476 3048 c25 -45 7 -43 493 -43 446 1 461 1 476 20 8 11 15 23 15
28 0 4 -223 7 -496 7 -393 0 -494 -3 -488 -12z"/>
<path d="M1550 2953 c0 -7 8 -16 18 -22 9 -5 184 -9 396 -9 326 0 383 2 403
15 13 9 21 18 18 21 -2 3 -192 6 -420 6 -319 1 -415 -2 -415 -11z"/>
<path d="M1640 2869 c0 -21 78 -27 335 -27 218 1 284 4 300 14 14 10 16 14 5
15 -65 5 -640 3 -640 -2z"/>
<path d="M1780 2788 c0 -8 8 -10 90 -27 79 -17 300 4 300 28 0 3 -88 6 -195 6
-107 0 -195 -3 -195 -7z"/>
<path d="M812 2573 c-45 -69 -81 -127 -79 -129 2 -2 184 -4 405 -4 375 -1 405
-2 448 -20 61 -26 107 -63 137 -109 l26 -38 217 1 c159 1 218 4 221 13 19 56
113 131 193 153 20 6 201 10 423 10 213 0 387 3 387 6 0 3 -37 59 -82 125
l-82 119 -441 0 -442 0 -61 -30 c-44 -22 -69 -43 -90 -75 l-28 -43 -35 46
c-43 57 -75 81 -125 92 -21 5 -235 10 -474 10 l-435 0 -83 -127z"/>
<path d="M816 2341 c-6 -13 2 -1338 8 -1366 16 -70 60 -192 89 -249 17 -34 31
-63 32 -66 2 -16 78 -114 138 -176 65 -70 213 -192 221 -183 2 2 26 40 54 83
l51 80 -57 42 c-147 107 -262 278 -313 464 -9 33 -13 215 -13 702 -1 361 -5
660 -9 665 -9 9 -197 12 -201 4z"/>
<path d="M1138 2316 c-1 -17 -2 -314 -2 -661 2 -603 3 -633 22 -691 51 -153
134 -269 261 -362 25 -17 48 -29 52 -25 4 5 30 42 57 85 l50 76 -46 38 c-89
71 -153 166 -181 268 -7 27 -11 251 -11 665 0 343 -3 627 -6 630 -3 3 -48 7
-99 7 l-93 1 -4 -31z"/>
<path d="M2596 1732 c0 -540 -2 -625 -16 -683 -26 -101 -58 -157 -140 -241
l-75 -77 42 -66 c24 -36 43 -70 43 -74 0 -18 26 -18 50 1 48 37 143 133 182
184 36 49 87 167 104 244 4 19 9 326 10 683 l3 647 -102 0 -102 0 1 -618z"/>
<path d="M2908 1678 c-3 -620 -5 -677 -22 -728 -35 -107 -93 -218 -151 -290
-32 -40 -147 -155 -177 -176 l-27 -19 47 -82 c26 -46 51 -83 55 -83 14 0 119
84 184 148 109 108 179 213 231 347 65 169 65 172 66 898 l1 657 -102 0 -102
0 -3 -672z"/>
<path d="M1749 2208 c-1 -2 -2 -313 -3 -693 l-1 -690 -237 -393 c-131 -215
-232 -392 -225 -393 51 -4 1370 -3 1372 1 2 3 -25 52 -59 110 -35 58 -139 233
-232 390 l-169 285 -3 691 -2 690 -85 2 -85 3 0 -706 c0 -659 1 -708 18 -743
10 -20 51 -92 92 -160 41 -67 80 -130 85 -140 6 -9 31 -52 57 -95 l48 -77 -38
-1 c-46 -1 -630 0 -654 0 -13 1 18 60 122 232 77 127 144 247 150 267 6 24 10
288 10 730 l0 692 -80 0 c-44 0 -80 -1 -81 -2z"/>
</g>
</svg>
